<mxfile host="app.diagrams.net" modified="2023-10-27T12:57:30.224Z" agent="Mozilla/5.0 (Windows NT 10.0; Win64; x64) AppleWebKit/537.36 (KHTML, like Gecko) Chrome/118.0.0.0 Safari/537.36 Edg/118.0.2088.69" etag="2Cx4EsPc82Gm0CJIFoNK" version="22.0.8" type="google">
  <diagram name="Page-1" id="i6Fk6NkkSAPjfHTLm6R8">
    <mxGraphModel grid="1" page="1" gridSize="10" guides="1" tooltips="1" connect="1" arrows="1" fold="1" pageScale="1" pageWidth="850" pageHeight="1100" math="0" shadow="0">
      <root>
        <mxCell id="0" />
        <mxCell id="1" parent="0" />
        <mxCell id="ORj-Zq_WpeGzwWcVXS1w-1" value="" style="ellipse;whiteSpace=wrap;html=1;aspect=fixed;" vertex="1" parent="1">
          <mxGeometry x="225" y="350" width="400" height="400" as="geometry" />
        </mxCell>
        <mxCell id="ORj-Zq_WpeGzwWcVXS1w-2" value="&lt;b&gt;&lt;font style=&quot;font-size: 18px;&quot;&gt;Wiring&lt;/font&gt;&lt;/b&gt;" style="text;html=1;strokeColor=none;fillColor=none;align=center;verticalAlign=middle;whiteSpace=wrap;rounded=0;" vertex="1" parent="1">
          <mxGeometry x="520" y="470" width="60" height="30" as="geometry" />
        </mxCell>
        <mxCell id="ORj-Zq_WpeGzwWcVXS1w-3" value="&lt;font style=&quot;font-size: 10px;&quot;&gt;Human Action&amp;nbsp;&lt;/font&gt;" style="ellipse;whiteSpace=wrap;html=1;aspect=fixed;fillColor=#FFFFFF;strokeColor=#F19C99;strokeWidth=2;dashed=1;dashPattern=8 8;" vertex="1" parent="1">
          <mxGeometry x="355" y="390" width="50" height="50" as="geometry" />
        </mxCell>
        <mxCell id="ORj-Zq_WpeGzwWcVXS1w-4" value="&lt;font style=&quot;font-size: 10px;&quot;&gt;Incorrect maintenance procedure&lt;/font&gt;" style="ellipse;whiteSpace=wrap;html=1;aspect=fixed;fillColor=#FFFFFF;strokeColor=#F19C99;strokeWidth=2;dashed=1;dashPattern=8 8;" vertex="1" parent="1">
          <mxGeometry x="390" y="485" width="50" height="50" as="geometry" />
        </mxCell>
        <mxCell id="ORj-Zq_WpeGzwWcVXS1w-5" value="" style="shape=flexArrow;endArrow=classic;html=1;rounded=0;width=0.3225806451612903;endSize=1.064804469273743;endWidth=2.980717246350694;strokeColor=#F19C99;" edge="1" parent="1" source="ORj-Zq_WpeGzwWcVXS1w-3" target="ORj-Zq_WpeGzwWcVXS1w-7">
          <mxGeometry width="50" height="50" relative="1" as="geometry">
            <mxPoint x="675" y="625" as="sourcePoint" />
            <mxPoint x="540" y="595" as="targetPoint" />
          </mxGeometry>
        </mxCell>
        <mxCell id="ORj-Zq_WpeGzwWcVXS1w-6" value="" style="shape=flexArrow;endArrow=classic;html=1;rounded=0;width=0.3225806451612903;endSize=1.064804469273743;endWidth=2.980717246350694;strokeColor=#F19C99;" edge="1" parent="1" source="ORj-Zq_WpeGzwWcVXS1w-7" target="ORj-Zq_WpeGzwWcVXS1w-4">
          <mxGeometry width="50" height="50" relative="1" as="geometry">
            <mxPoint x="665" y="660" as="sourcePoint" />
            <mxPoint x="685" y="675" as="targetPoint" />
          </mxGeometry>
        </mxCell>
        <mxCell id="ORj-Zq_WpeGzwWcVXS1w-7" value="" style="ellipse;whiteSpace=wrap;html=1;aspect=fixed;fillColor=#000000;strokeColor=#000000;" vertex="1" parent="1">
          <mxGeometry x="415" y="450" width="10" height="10" as="geometry" />
        </mxCell>
        <mxCell id="ORj-Zq_WpeGzwWcVXS1w-8" value="" style="shape=flexArrow;endArrow=classic;html=1;rounded=0;width=0.3225806451612903;endSize=1.064804469273743;endWidth=2.980717246350694;strokeColor=#F19C99;" edge="1" parent="1" source="ORj-Zq_WpeGzwWcVXS1w-16" target="ORj-Zq_WpeGzwWcVXS1w-7">
          <mxGeometry width="50" height="50" relative="1" as="geometry">
            <mxPoint x="440" y="440" as="sourcePoint" />
            <mxPoint x="701.576385689822" y="657.2272271813727" as="targetPoint" />
          </mxGeometry>
        </mxCell>
        <mxCell id="ORj-Zq_WpeGzwWcVXS1w-10" value="&lt;font style=&quot;font-size: 14px;&quot;&gt;F&lt;/font&gt;&lt;font style=&quot;font-size: 11.6667px;&quot;&gt;&lt;sub&gt;wiring&lt;/sub&gt;&lt;/font&gt;" style="ellipse;whiteSpace=wrap;html=1;aspect=fixed;fillColor=#A9C4EB;" vertex="1" parent="1">
          <mxGeometry x="375" y="565" width="80" height="80" as="geometry" />
        </mxCell>
        <mxCell id="ORj-Zq_WpeGzwWcVXS1w-11" value="&lt;font style=&quot;font-size: 10px;&quot;&gt;Aging&lt;/font&gt;" style="ellipse;whiteSpace=wrap;html=1;aspect=fixed;fillColor=#FFFFFF;strokeColor=#F19C99;strokeWidth=2;dashed=1;dashPattern=8 8;" vertex="1" parent="1">
          <mxGeometry x="325" y="660" width="50" height="50" as="geometry" />
        </mxCell>
        <mxCell id="ORj-Zq_WpeGzwWcVXS1w-12" value="&lt;font style=&quot;font-size: 10px;&quot;&gt;Overload&lt;/font&gt;" style="ellipse;whiteSpace=wrap;html=1;aspect=fixed;fillColor=#FFFFFF;strokeColor=#F19C99;strokeWidth=2;dashed=1;dashPattern=8 8;" vertex="1" parent="1">
          <mxGeometry x="290" y="580" width="50" height="50" as="geometry" />
        </mxCell>
        <mxCell id="ORj-Zq_WpeGzwWcVXS1w-13" value="&lt;font style=&quot;font-size: 10px;&quot;&gt;Fraying&lt;/font&gt;" style="ellipse;whiteSpace=wrap;html=1;aspect=fixed;fillColor=#FFFFFF;strokeColor=#F19C99;strokeWidth=2;dashed=1;dashPattern=8 8;" vertex="1" parent="1">
          <mxGeometry x="455" y="660" width="50" height="50" as="geometry" />
        </mxCell>
        <mxCell id="ORj-Zq_WpeGzwWcVXS1w-14" value="&lt;font style=&quot;font-size: 10px;&quot;&gt;Overheating&lt;/font&gt;" style="ellipse;whiteSpace=wrap;html=1;aspect=fixed;fillColor=#FFFFFF;strokeColor=#F19C99;strokeWidth=2;dashed=1;dashPattern=8 8;" vertex="1" parent="1">
          <mxGeometry x="475" y="580" width="50" height="50" as="geometry" />
        </mxCell>
        <mxCell id="ORj-Zq_WpeGzwWcVXS1w-15" value="" style="shape=flexArrow;endArrow=classic;html=1;rounded=0;width=0.3225806451612903;endSize=1.064804469273743;endWidth=2.980717246350694;strokeColor=#F19C99;" edge="1" parent="1" source="ORj-Zq_WpeGzwWcVXS1w-14" target="ORj-Zq_WpeGzwWcVXS1w-10">
          <mxGeometry width="50" height="50" relative="1" as="geometry">
            <mxPoint x="450" y="450" as="sourcePoint" />
            <mxPoint x="434" y="462" as="targetPoint" />
          </mxGeometry>
        </mxCell>
        <mxCell id="ORj-Zq_WpeGzwWcVXS1w-16" value="&lt;font style=&quot;font-size: 10px;&quot;&gt;Robot Action&amp;nbsp;&lt;/font&gt;" style="ellipse;whiteSpace=wrap;html=1;aspect=fixed;fillColor=#FFFFFF;strokeColor=#F19C99;strokeWidth=2;dashed=1;dashPattern=8 8;" vertex="1" parent="1">
          <mxGeometry x="440" y="390" width="50" height="50" as="geometry" />
        </mxCell>
        <mxCell id="ORj-Zq_WpeGzwWcVXS1w-18" value="" style="shape=flexArrow;endArrow=classic;html=1;rounded=0;width=0.3225806451612903;endSize=1.064804469273743;endWidth=2.980717246350694;strokeColor=#F19C99;" edge="1" parent="1" source="ORj-Zq_WpeGzwWcVXS1w-12" target="ORj-Zq_WpeGzwWcVXS1w-10">
          <mxGeometry width="50" height="50" relative="1" as="geometry">
            <mxPoint x="430" y="470" as="sourcePoint" />
            <mxPoint x="430" y="495" as="targetPoint" />
          </mxGeometry>
        </mxCell>
        <mxCell id="ORj-Zq_WpeGzwWcVXS1w-19" value="" style="shape=flexArrow;endArrow=classic;html=1;rounded=0;width=0.3225806451612903;endSize=1.064804469273743;endWidth=2.980717246350694;strokeColor=#F19C99;" edge="1" parent="1" source="ORj-Zq_WpeGzwWcVXS1w-11" target="ORj-Zq_WpeGzwWcVXS1w-10">
          <mxGeometry width="50" height="50" relative="1" as="geometry">
            <mxPoint x="568" y="610" as="sourcePoint" />
            <mxPoint x="585" y="495" as="targetPoint" />
          </mxGeometry>
        </mxCell>
        <mxCell id="ORj-Zq_WpeGzwWcVXS1w-20" value="" style="shape=flexArrow;endArrow=classic;html=1;rounded=0;width=0.3225806451612903;endSize=1.064804469273743;endWidth=2.980717246350694;strokeColor=#F19C99;" edge="1" parent="1" source="ORj-Zq_WpeGzwWcVXS1w-13" target="ORj-Zq_WpeGzwWcVXS1w-10">
          <mxGeometry width="50" height="50" relative="1" as="geometry">
            <mxPoint x="686" y="604" as="sourcePoint" />
            <mxPoint x="612" y="489" as="targetPoint" />
          </mxGeometry>
        </mxCell>
        <mxCell id="ORj-Zq_WpeGzwWcVXS1w-21" value="" style="shape=flexArrow;endArrow=classic;html=1;rounded=0;width=0.3225806451612903;endSize=1.064804469273743;endWidth=2.980717246350694;strokeColor=#F19C99;" edge="1" parent="1" source="ORj-Zq_WpeGzwWcVXS1w-4" target="ORj-Zq_WpeGzwWcVXS1w-10">
          <mxGeometry width="50" height="50" relative="1" as="geometry">
            <mxPoint x="568" y="610" as="sourcePoint" />
            <mxPoint x="585" y="495" as="targetPoint" />
          </mxGeometry>
        </mxCell>
      </root>
    </mxGraphModel>
  </diagram>
</mxfile>
